<svg 
    xmlns="http://www.w3.org/2000/svg" 
    width="24" 
    height="24" 
    stroke-width="1" 
    stroke="#000000" 
    fill="none" 
    stroke-linejoin="arcs" 
    stroke-linecap="square" 
    viewBox="0 0 24 24"> 
    <g fill="none" 
    fill-rule="evenodd">
    <rect width="24" 
    height="24" 
    style="stroke:rgba(0,0,0,0)">
    </rect>
    <path d="M12,11 C12.552,11 13,11.448 13,
    12 C13,12.552 12.552,13 12,13 C11.448,
    13 11,12.552 11,12 C11,11.448 11.448,
    11 12,11 Z M19,11 C19.552,11 20,11.448 20,
    12 C20,12.552 19.552,13 19,13 C18.448,
    13 18,12.552 18,12 C18,11.448 18.448,
    11 19,11 Z M5,11 C5.552,11 6,11.448 6,
    12 C6,12.552 5.552,13 5,13 C4.448,13 4,
    12.552 4,12 C4,11.448 4.448,11 5,11 Z" 
    stroke="#fff">
    </path>
    </g>
</svg>