<svg 
    xmlns="http://www.w3.org/2000/svg" 
    width="24" 
    height="24" 
    stroke-width="1" 
    stroke="#000000" 
    fill="none" 
    stroke-linejoin="arcs" 
    stroke-linecap="square" 
    viewBox="0 0 24 24"> 
    <g fill="none" fill-rule="evenodd">
    <rect width="24" height="24" style="stroke:rgba(0,0,0,0)">
    </rect>
    <path 
    d="M14.5,18 C14.5,19.3807119 
    13.3807119,20.5 12,20.5 C10.6192881,
    20.5 9.5,19.3807119 9.5,18 L9.5,
    18 Z M10.8571429,3.16364926 C13.1086256,
    2.94602415 10.8903399,2.9448771 13.1417143,
    3.16364926 C15.3931429,3.38242669 17.2217143,
    4.22165227 17.2228571,6.21264262 C17.2228571,
    15.136215 20,14.673194 20,15.9198781 L20,
    15.9198781 L20,18 L4,18 L4,15.9187206 C4,
    14.7357019 6.77714286,15.1373726 6.77714286,
    6.21264262 C6.77714286,4.22396738 8.60571429,
    3.38126914 10.8571429,3.16364926 Z" 
    stroke="#fff">
    </path>
    </g>
</svg>